<svg width="1280" height="520" viewBox="0 0 1280 520" fill="none" xmlns="http://www.w3.org/2000/svg">
  <rect width="1280" height="520" rx="0" fill="#0B1020"/>
  <path d="M0 380C154 305 298 318 440 368C617 431 759 447 924 365C1054 300 1163 292 1280 326V520H0V380Z" fill="#15803D" opacity=".42"/>
  <path d="M0 112C171 168 323 165 506 99C675 38 809 42 970 107C1086 154 1173 159 1280 122" stroke="#22C55E" stroke-width="3" opacity=".28"/>
  <path d="M0 158C188 224 354 224 546 154C699 98 830 99 984 163C1098 211 1185 219 1280 190" stroke="#DCFCE7" stroke-width="2" opacity=".25"/>

  <rect x="64" y="58" width="1152" height="404" rx="28" fill="#F8FAFC"/>
  <rect x="96" y="90" width="1088" height="340" rx="22" fill="#FFFFFF" stroke="#E5E7EB"/>

  <rect x="134" y="132" width="452" height="230" rx="18" fill="#111827"/>
  <circle cx="168" cy="166" r="8" fill="#EF4444"/>
  <circle cx="194" cy="166" r="8" fill="#F59E0B"/>
  <circle cx="220" cy="166" r="8" fill="#22C55E"/>
  <text x="166" y="220" fill="#F8FAFC" font-family="Inter,Segoe UI,Arial,sans-serif" font-size="30" font-weight="800">Repo Context Pack</text>
  <text x="166" y="260" fill="#CBD5E1" font-family="Inter,Segoe UI,Arial,sans-serif" font-size="17">Create a small, reviewable context pack from README, AGENTS.md, prompts, and package meta...</text>
  <rect x="166" y="304" width="118" height="36" rx="18" fill="#22C55E"/>
  <text x="190" y="328" fill="#0B1020" font-family="Inter,Segoe UI,Arial,sans-serif" font-size="16" font-weight="800">v0.1.1</text>
  <rect x="300" y="304" width="132" height="36" rx="18" fill="#1F2937"/>
  <text x="323" y="328" fill="#F8FAFC" font-family="Inter,Segoe UI,Arial,sans-serif" font-size="16" font-weight="700">zero deps</text>

  <g transform="translate(654 125)">
    <rect width="430" height="250" rx="18" fill="#F8FAFC" stroke="#CBD5E1"/>
    <rect x="28" y="28" width="374" height="44" rx="12" fill="#DCFCE7"/>
    <text x="48" y="57" fill="#15803D" font-family="JetBrains Mono,Consolas,monospace" font-size="18" font-weight="700">$ repo-context-pack</text>
    <text x="42" y="112" fill="#16A34A" font-family="JetBrains Mono,Consolas,monospace" font-size="18">PASS</text>
    <text x="120" y="112" fill="#111827" font-family="JetBrains Mono,Consolas,monospace" font-size="18">score gate</text>
    <text x="42" y="154" fill="#16A34A" font-family="JetBrains Mono,Consolas,monospace" font-size="18">PASS</text>
    <text x="120" y="154" fill="#111827" font-family="JetBrains Mono,Consolas,monospace" font-size="18">sarif output</text>
    <text x="42" y="196" fill="#F59E0B" font-family="JetBrains Mono,Consolas,monospace" font-size="18">WARN</text>
    <text x="120" y="196" fill="#111827" font-family="JetBrains Mono,Consolas,monospace" font-size="18">missing signal</text>
  </g>

  <text x="134" y="406" fill="#64748B" font-family="Inter,Segoe UI,Arial,sans-serif" font-size="16">GitHub + Gitee mirrored · CI ready · SARIF · annotations · bilingual docs</text>
</svg>
